<svg width="32" height="33" viewBox="0 0 32 33" fill="none" xmlns="http://www.w3.org/2000/svg">
<path d="M5.42856 17.9336L8.5323 24.232V28.6923C8.5323 29.1891 8.72899 29.6655 9.07911 30.0168C9.42922 30.3681 9.90408 30.5654 10.3992 30.5654H21.6007C22.0958 30.5654 22.5707 30.3681 22.9208 30.0168C23.2709 29.6655 23.4676 29.1891 23.4676 28.6923V24.232L26.5713 17.9336C26.7217 17.6245 26.7848 17.28 26.754 16.9375C26.7231 16.5949 26.5994 16.2673 26.3963 15.9903L16.7467 2.85506C16.6613 2.73658 16.549 2.64012 16.4192 2.57361C16.2894 2.50709 16.1457 2.47241 15.9999 2.47241C15.8542 2.47241 15.7105 2.50709 15.5807 2.57361C15.4509 2.64012 15.3386 2.73658 15.2532 2.85506L5.60358 15.9903C5.40046 16.2673 5.27677 16.5949 5.24592 16.9375C5.21507 17.28 5.27823 17.6245 5.42856 17.9336ZM10.3992 28.6923V24.9461H21.6007V28.6923H10.3992ZM15.9999 15.5805C16.2769 15.5805 16.5476 15.6629 16.7778 15.8173C17.0081 15.9716 17.1876 16.1911 17.2935 16.4478C17.3995 16.7045 17.4273 16.9869 17.3732 17.2594C17.3192 17.5319 17.1858 17.7823 16.99 17.9787C16.7942 18.1752 16.5447 18.309 16.2731 18.3632C16.0015 18.4174 15.72 18.3896 15.4641 18.2833C15.2083 18.1769 14.9896 17.9969 14.8357 17.7658C14.6819 17.5348 14.5998 17.2632 14.5998 16.9854C14.5998 16.6128 14.7473 16.2554 15.0099 15.992C15.2725 15.7285 15.6286 15.5805 15.9999 15.5805ZM15.0665 6.26178V13.8479C14.3144 14.0729 13.6682 14.5619 13.246 15.2256C12.8238 15.8893 12.6538 16.6833 12.7671 17.4624C12.8804 18.2416 13.2694 18.9537 13.863 19.4687C14.4566 19.9837 15.2152 20.2671 15.9999 20.2671C16.7847 20.2671 17.5433 19.9837 18.1369 19.4687C18.7305 18.9537 19.1195 18.2416 19.2328 17.4624C19.3461 16.6833 19.1761 15.8893 18.7539 15.2256C18.3317 14.5619 17.6855 14.0729 16.9334 13.8479V6.26178L24.8911 17.1024L21.9507 23.073H10.0492L7.10878 17.1024L15.0665 6.26178Z" fill="white"/>
</svg>
